<?xml version="1.0" encoding="UTF-8" standalone="no"?>
<!-- Created with Inkscape (http://www.inkscape.org/) -->

<svg
   xmlns:dc="http://purl.org/dc/elements/1.1/"
   xmlns:cc="http://creativecommons.org/ns#"
   xmlns:rdf="http://www.w3.org/1999/02/22-rdf-syntax-ns#"
   xmlns:svg="http://www.w3.org/2000/svg"
   xmlns="http://www.w3.org/2000/svg"
   xmlns:xlink="http://www.w3.org/1999/xlink"
   xmlns:sodipodi="http://sodipodi.sourceforge.net/DTD/sodipodi-0.dtd"
   xmlns:inkscape="http://www.inkscape.org/namespaces/inkscape"
   width="942.04401"
   height="916.43976"
   id="svg2"
   version="1.1"
   inkscape:version="0.48.0 r9654"
   sodipodi:docname="Neues Dokument 1">
  <defs
     id="defs4">
    <linearGradient
       id="linearGradient3809">
      <stop
         style="stop-color:#e8ff4f;stop-opacity:0;"
         offset="0"
         id="stop3811" />
      <stop
         style="stop-color:#f5ff5a;stop-opacity:1;"
         offset="1"
         id="stop3813" />
    </linearGradient>
    <filter
       inkscape:collect="always"
       id="filter3805"
       x="-0.11798442"
       width="1.2359688"
       y="-0.12208564"
       height="1.2441713"
       color-interpolation-filters="sRGB">
      <feGaussianBlur
         inkscape:collect="always"
         stdDeviation="19.849293"
         id="feGaussianBlur3807" />
    </filter>
    <radialGradient
       inkscape:collect="always"
       xlink:href="#linearGradient3809"
       id="radialGradient3815"
       cx="230.87216"
       cy="241.96078"
       fx="230.87216"
       fy="241.96078"
       r="249.52217"
       gradientTransform="matrix(1.7430033,-1.840942e-5,-2.7477253e-8,1.458645,-171.53847,-111.31991)"
       gradientUnits="userSpaceOnUse" />
  </defs>
  <sodipodi:namedview
     id="base"
     pagecolor="#000001"
     bordercolor="#666666"
     borderopacity="1.0"
     inkscape:pageopacity="1"
     inkscape:pageshadow="2"
     inkscape:zoom="0.745"
     inkscape:cx="450.99241"
     inkscape:cy="398.96929"
     inkscape:document-units="px"
     inkscape:current-layer="layer1"
     showgrid="false"
     fit-margin-top="0"
     fit-margin-left="0"
     fit-margin-right="0"
     fit-margin-bottom="0"
     inkscape:window-width="1280"
     inkscape:window-height="969"
     inkscape:window-x="0"
     inkscape:window-y="28"
     inkscape:window-maximized="1" />
  <metadata
     id="metadata7">
    <rdf:RDF>
      <cc:Work
         rdf:about="">
        <dc:format>image/svg+xml</dc:format>
        <dc:type
           rdf:resource="http://purl.org/dc/dcmitype/StillImage" />
        <dc:title></dc:title>
      </cc:Work>
    </rdf:RDF>
  </metadata>
  <g
     inkscape:label="Ebene 1"
     inkscape:groupmode="layer"
     id="layer1"
     transform="translate(-49.007587,-34.891736)">
    <path
       transform="matrix(1.887696,0,0,1.887696,84.287573,60.674587)"
       style="fill:#ff7f2a;fill-opacity:1;stroke:none;filter:url(#filter3805)"
       inkscape:transform-center-x="-2.9923993"
       inkscape:transform-center-y="-35.063137"
       d="m 348.99328,417.44966 c -34.40387,23.736 -81.32034,-22.81965 -123.10532,-23.83891 -41.78498,-1.01926 -90.91556,43.19353 -124.12122,17.80834 C 68.561081,386.0339 98.340153,327.02719 86.397254,286.97234 74.454355,246.91749 17.223314,213.85403 31.104956,174.42912 44.986597,135.00421 110.30754,145.09171 144.71141,121.35571 c 34.40387,-23.736 48.16372,-88.383119 89.9487,-87.363862 41.78498,1.019257 52.37648,66.260382 85.58214,91.645572 33.20566,25.38519 98.94075,18.49453 110.88365,58.54938 11.9429,40.05485 -46.83215,70.28858 -60.71379,109.71349 -13.88164,39.42491 12.98504,99.81337 -21.41883,123.54937 z"
       id="path3817"
       inkscape:connector-curvature="0"
       sodipodi:nodetypes="aaaaaaaaaaa" />
    <path
       transform="translate(287.24833,276.52326)"
       style="fill:#ffffff;fill-opacity:1;stroke:none"
       inkscape:transform-center-x="-1.5852302"
       inkscape:transform-center-y="-18.57455"
       d="m 348.99328,417.44966 c -34.40387,23.736 -81.32034,-22.81965 -123.10532,-23.83891 -41.78498,-1.01926 -90.91556,43.19353 -124.12122,17.80834 C 68.561081,386.0339 98.340153,327.02719 86.397254,286.97234 74.454355,246.91749 17.223314,213.85403 31.104956,174.42912 44.986597,135.00421 110.30754,145.09171 144.71141,121.35571 c 34.40387,-23.736 48.16372,-88.383119 89.9487,-87.363862 41.78498,1.019257 52.37648,66.260382 85.58214,91.645572 33.20566,25.38519 98.94075,18.49453 110.88365,58.54938 11.9429,40.05485 -46.83215,70.28858 -60.71379,109.71349 -13.88164,39.42491 12.98504,99.81337 -21.41883,123.54937 z"
       id="path2985"
       inkscape:connector-curvature="0"
       sodipodi:nodetypes="aaaaaaaaaaa" />
    <path
       sodipodi:nodetypes="aaaaaaaaaaa"
       inkscape:connector-curvature="0"
       id="path2991"
       d="m 348.99328,417.44966 c -34.40387,23.736 -81.32034,-22.81965 -123.10532,-23.83891 -41.78498,-1.01926 -90.91556,43.19353 -124.12122,17.80834 C 68.561081,386.0339 98.340153,327.02719 86.397254,286.97234 74.454355,246.91749 17.223314,213.85403 31.104956,174.42912 44.986597,135.00421 110.30754,145.09171 144.71141,121.35571 c 34.40387,-23.736 48.16372,-88.383119 89.9487,-87.363862 41.78498,1.019257 52.37648,66.260382 85.58214,91.645572 33.20566,25.38519 98.94075,18.49453 110.88365,58.54938 11.9429,40.05485 -46.83215,70.28858 -60.71379,109.71349 -13.88164,39.42491 12.98504,99.81337 -21.41883,123.54937 z"
       inkscape:transform-center-y="-25.96981"
       inkscape:transform-center-x="-2.2163523"
       style="fill:url(#radialGradient3815);fill-opacity:1;stroke:none;filter:url(#filter3805)"
       transform="matrix(1.3981386,0,0,1.3981386,198.10446,182.63233)" />
  </g>
</svg>
